<?xml version="1.0" encoding="iso-8859-1"?>
<!-- Generator: Adobe Illustrator 19.0.0, SVG Export Plug-In . SVG Version: 6.00 Build 0)  -->
<svg version="1.1" id="Layer_1" xmlns="http://www.w3.org/2000/svg" xmlns:xlink="http://www.w3.org/1999/xlink" x="0px" y="0px"
	 viewBox="0 0 512 512" style="enable-background:new 0 0 512 512;" xml:space="preserve">
<g>
	
		<polyline style="fill:none;stroke:#F7B239;stroke-width:15;stroke-linecap:round;stroke-linejoin:round;stroke-miterlimit:10;" points="
		393.351,93.719 393.351,165.424 393.351,184.294 393.351,203.163 393.351,213.227 	"/>
	
		<polyline style="fill:none;stroke:#F7B239;stroke-width:15;stroke-linecap:round;stroke-linejoin:round;stroke-miterlimit:10;" points="
		376.368,171.085 393.351,165.424 410.334,159.763 	"/>
	
		<polyline style="fill:none;stroke:#F7B239;stroke-width:15;stroke-linecap:round;stroke-linejoin:round;stroke-miterlimit:10;" points="
		376.368,189.954 393.351,184.294 410.334,178.633 	"/>
	
		<polyline style="fill:none;stroke:#F7B239;stroke-width:15;stroke-linecap:round;stroke-linejoin:round;stroke-miterlimit:10;" points="
		376.368,208.824 393.351,203.163 410.334,197.502 	"/>
	<path style="fill:none;stroke:#F7B239;stroke-width:15;stroke-linecap:round;stroke-linejoin:round;stroke-miterlimit:10;" d="
		M361.197,309.715c-17.763-17.763-17.763-46.558,0-64.321l32.154-32.167l32.167,32.167c17.763,17.763,17.763,46.558,0,64.321
		c-8.881,8.881-20.518,13.322-32.167,13.322C381.715,323.037,370.079,318.596,361.197,309.715z"/>
</g>
<g>
	<polygon style="fill:#B27214;" points="282.888,93.719 257.728,118.878 159.366,217.253 159.366,163.486 203.962,118.878 
		229.121,93.719 	"/>
	<rect x="54.953" y="34.593" style="fill:#B27214;" width="45.287" height="59.125"/>
</g>
<rect x="76.109" y="34.593" style="fill:#995C0D;" width="24.128" height="59.125"/>
<polygon style="fill:#B27214;" points="437.381,34.593 437.381,93.719 393.351,93.719 282.888,93.719 229.121,93.719 
	159.366,93.719 159.366,34.593 "/>
<polygon style="fill:#995C0D;" points="282.888,93.719 257.728,118.878 203.962,118.878 229.121,93.719 "/>
<polygon style="fill:#B27214;" points="159.366,217.253 159.366,502.564 100.241,502.564 100.241,93.719 100.241,34.593 
	100.241,9.434 159.366,9.434 159.366,34.593 159.366,93.719 159.366,163.486 "/>
<path style="fill:#333333;" d="M464.502,493.13H168.805V221.163l117.996-118.008h97.119v55.47l-10.532,3.511
	c-4.944,1.648-7.615,6.991-5.967,11.935c1.179,3.534,4.246,5.892,7.705,6.357l-1.739,0.579c-4.944,1.648-7.615,6.991-5.967,11.934
	c1.179,3.534,4.246,5.892,7.705,6.357l-1.739,0.579c-4.944,1.648-7.615,6.991-5.967,11.935c1.172,3.517,4.218,5.874,7.657,6.353
	l-20.559,20.559c-21.412,21.413-21.412,56.256,0,77.669c0,0,0,0,0.001,0c10.373,10.373,24.165,16.086,38.834,16.086
	c14.671,0,28.462-5.712,38.834-16.086c10.375-10.373,16.087-24.165,16.087-38.835s-5.712-28.462-16.086-38.835l-28.916-28.916
	l10.048-3.35c4.944-1.648,7.615-6.991,5.967-11.935c-1.177-3.531-4.241-5.892-7.695-6.359l1.728-0.576
	c4.944-1.648,7.615-6.991,5.967-11.935c-1.177-3.531-4.241-5.892-7.695-6.359l1.728-0.576c4.944-1.648,7.615-6.991,5.967-11.935
	c-1.649-4.944-6.991-7.616-11.935-5.968l-4.564,1.521v-49.178h34.595c5.212,0,9.435-4.224,9.435-9.435V34.595
	c0-5.211-4.223-9.435-9.435-9.435h-268.58V9.435c0-5.211-4.223-9.435-9.435-9.435h-59.125c-5.212,0-9.435,4.224-9.435,9.435V25.16
	H54.957c-5.212,0-9.435,4.224-9.435,9.435V93.72c0,5.211,4.223,9.435,9.435,9.435H90.81V493.13H47.5
	c-5.212,0-9.435,4.224-9.435,9.435S42.288,512,47.5,512H464.5c5.212,0,9.435-4.224,9.435-9.435S469.712,493.13,464.502,493.13z
	 M429.406,277.556c0,9.63-3.75,18.682-10.561,25.492c-6.808,6.809-15.861,10.56-25.492,10.56c-9.629,0-18.684-3.75-25.493-10.56
	h0.001c-14.057-14.057-14.057-36.927,0-50.984l25.492-25.492l25.493,25.492C425.656,258.873,429.406,267.926,429.406,277.556z
	 M168.805,103.155h37.546l-37.546,37.552V103.155z M168.805,194.474v-27.079l64.229-64.24h27.082L168.805,194.474z M427.95,44.029
	v40.256H168.805V44.029H427.95z M64.392,84.285V44.029H90.81v40.256H64.392z M109.679,493.13V18.87h40.256v474.26H109.679z"/>
<g>
</g>
<g>
</g>
<g>
</g>
<g>
</g>
<g>
</g>
<g>
</g>
<g>
</g>
<g>
</g>
<g>
</g>
<g>
</g>
<g>
</g>
<g>
</g>
<g>
</g>
<g>
</g>
<g>
</g>
</svg>
